<svg width="28" height="20" viewBox="0 0 28 20" fill="none" xmlns="http://www.w3.org/2000/svg">
<path d="M3.99907 6.36378H3.99407C3.99407 3.72378 5.70407 1.47378 8.09407 0.673784C8.74407 0.453784 9.27407 1.23378 8.83407 1.76378L7.49607 3.36378H8.50407C8.78407 3.36378 9.00407 3.58378 9.00407 3.86378C9.00407 4.14378 8.77407 4.36378 8.50407 4.36378H11.9941C13.0941 4.36378 13.9941 5.26378 13.9941 6.36378H20.9941V5.33378C20.9941 4.80378 21.4241 4.36378 21.9641 4.36378H26.0141C26.5541 4.36378 26.9941 4.80378 27.0041 5.33378V5.44378C27.0041 5.76578 26.9361 6.07778 26.8061 6.36378H24.9941V6.37378C24.4441 6.37378 23.9941 6.82378 23.9941 7.37378C23.9941 7.83378 24.3041 8.19378 24.7241 8.31378H24.7571C23.8731 8.90178 22.9071 9.36678 21.9041 9.74378C21.4166 9.92715 20.955 10.1732 20.5311 10.4758L21.1131 11.0448C21.9039 10.5521 22.8281 10.3169 23.7582 10.3719C24.6883 10.4268 25.5784 10.7691 26.3057 11.3515C27.0329 11.934 27.5615 12.7277 27.8184 13.6234C28.0753 14.519 28.0478 15.4722 27.7398 16.3516C27.4318 17.2309 26.8585 17.993 26.0989 18.5326C25.3393 19.0722 24.431 19.3627 23.4993 19.3641C22.5675 19.3654 21.6584 19.0775 20.8973 18.5401C20.1361 18.0027 19.5606 17.2422 19.2501 16.3638H17.7541C17.4121 16.9578 16.7431 17.3638 15.9941 17.3638H11.9941C10.9111 17.3638 9.99407 16.4038 9.99407 15.3638C9.99407 14.6468 9.86707 13.9888 9.65107 13.3638C9.53158 13.0212 9.38892 12.687 9.22407 12.3638H9.21407C9.12795 12.2026 9.03555 12.0448 8.93707 11.8908L8.31207 12.4808C8.89812 13.4192 9.11791 14.5407 8.92945 15.6309C8.741 16.7211 8.15751 17.7037 7.29044 18.391C6.42338 19.0782 5.33352 19.4219 4.22907 19.3565C3.12461 19.2911 2.08296 18.821 1.30312 18.0362C0.523273 17.2514 0.0598899 16.2068 0.0014869 15.1019C-0.0569161 13.9971 0.293755 12.9094 0.986513 12.0468C1.67927 11.1841 2.66556 10.6069 3.75696 10.4254C4.84837 10.2438 5.96839 10.4708 6.90307 11.0628L7.60907 10.3708C7.21579 10.0386 6.78444 9.75423 6.32407 9.52378L5.78407 9.25378L5.77607 9.24978C5.91438 8.97458 5.98889 8.67174 5.99407 8.36378C5.9925 7.8347 5.78196 7.32766 5.40831 6.95307C5.03466 6.57849 4.52815 6.36668 3.99907 6.36378ZM18.8141 12.3638H18.7911C18.6011 12.6798 18.4447 13.0131 18.3221 13.3638C18.2067 13.6944 18.1217 14.0378 18.0671 14.3938H19.0181C19.0901 13.7008 19.3191 13.0538 19.6691 12.4918L19.0811 11.9448C18.9863 12.0807 18.8972 12.2205 18.8141 12.3638ZM23.3411 13.3718C22.952 13.4121 22.594 13.6029 22.3436 13.9034C22.0931 14.2039 21.9699 14.5903 22.0003 14.9803C22.0307 15.3703 22.2123 15.7331 22.5063 15.9911C22.8003 16.2492 23.1835 16.3822 23.5741 16.3617C23.9648 16.3413 24.332 16.1691 24.5975 15.8818C24.863 15.5945 25.0057 15.2148 24.9953 14.8237C24.9848 14.4327 24.822 14.0612 24.5416 13.7885C24.2612 13.5157 23.8853 13.3633 23.4941 13.3638H23.4841C23.4361 13.3638 23.3884 13.3664 23.3411 13.3718ZM4.55207 13.3638H4.49407C4.09876 13.3646 3.71976 13.5215 3.43947 13.8002C3.15917 14.079 3.00026 14.4571 2.99726 14.8524C2.99427 15.2477 3.14744 15.6282 3.42348 15.9112C3.69952 16.1942 4.07611 16.3567 4.47136 16.3636C4.86662 16.3704 5.24858 16.2209 5.53421 15.9476C5.81984 15.6743 5.98604 15.2993 5.99668 14.9041C6.00731 14.509 5.86152 14.1256 5.59101 13.8373C5.32049 13.5491 4.94712 13.3782 4.55207 13.3638ZM7.00407 7.36378C7.00407 7.91378 7.45407 8.36378 8.00407 8.36378H9.00407V6.36378H8.00407C7.45407 6.36378 7.00407 6.81378 7.00407 7.36378ZM10.7011 13.3638C10.8851 13.9838 10.9941 14.6468 10.9941 15.3638C10.9941 15.8658 11.4771 16.3638 11.9941 16.3638H15.9941C16.5841 16.3638 16.9941 15.9038 16.9941 15.4738V15.3638C16.9941 14.6788 17.0851 14.0058 17.2721 13.3638H10.7011Z" fill="white"/>
</svg>
